<svg width="0" height="0" class="hidden">
  <symbol xmlns="http://www.w3.org/2000/svg" viewBox="0 0 32 32" id="git-scm-icon">
    <path d="M31.396 14.575L17.425.604a2.06 2.06 0 0 0-2.914 0l-2.9 2.9 3.68 3.68c.856-.3 1.836-.095 2.518.587a2.45 2.45 0 0 1 .581 2.533l3.547 3.547c.858-.296 1.848-.105 2.533.582a2.45 2.45 0 1 1-3.469 3.468c-.72-.72-.898-1.78-.534-2.667l-3.308-3.308v8.705a2.5 2.5 0 0 1 .65.464 2.45 2.45 0 1 1-3.468 3.468 2.45 2.45 0 0 1 0-3.468c.237-.236.5-.415.803-.535v-8.786c-.292-.12-.566-.297-.803-.535a2.45 2.45 0 0 1-.528-2.681l-3.63-3.628-9.58 9.57a2.06 2.06 0 0 0 0 2.915l13.972 13.97a2.06 2.06 0 0 0 2.914 0L31.396 17.5a2.06 2.06 0 0 0 0-2.915" fill="#f03c2e"></path>
  </symbol>
  <symbol xmlns="http://www.w3.org/2000/svg" fill="#00acd7" viewBox="0 0 256 95.643" id="golang-official">
    <path d="M19.32 28.96c-.5 0-.623-.25-.374-.623l2.617-3.365c.25-.374.872-.623 1.37-.623H67.43c.5 0 .623.374.374.748l-2.12 3.24c-.25.374-.872.748-1.246.748l-45.12-.125zM.5 40.427c-.5 0-.623-.25-.374-.623l2.617-3.365c.25-.374.872-.623 1.37-.623H60.95c.5 0 .748.374.623.748l-.997 2.99c-.125.5-.623.748-1.122.748L.5 40.427zm30.163 11.467c-.5 0-.623-.374-.374-.748l1.745-3.116c.25-.374.748-.748 1.246-.748h24.928c.5 0 .748.374.748.872l-.25 2.99c0 .5-.5.872-.872.872l-27.172-.125zm129.38-25.178L139.1 32.2c-1.87.5-1.994.623-3.615-1.246-1.87-2.12-3.24-3.5-5.858-4.736-7.852-3.864-15.456-2.742-22.56 1.87-8.476 5.484-12.838 13.586-12.714 23.682.125 9.97 6.98 18.198 16.827 19.57 8.476 1.122 15.58-1.87 21.19-8.226 1.122-1.37 2.12-2.867 3.365-4.612H111.68c-2.617 0-3.24-1.62-2.368-3.74 1.62-3.864 4.612-10.345 6.357-13.586.374-.748 1.246-1.994 3.116-1.994h45.37c-.25 3.365-.25 6.73-.748 10.096-1.37 8.974-4.736 17.2-10.22 24.43-8.974 11.84-20.69 19.195-35.523 21.19-12.215 1.62-23.557-.748-33.53-8.226C74.9 79.69 69.675 70.466 68.304 59c-1.62-13.586 2.368-25.8 10.595-36.52 8.85-11.592 20.566-18.946 34.9-21.563 11.716-2.12 22.934-.748 33.03 6.107 6.606 4.362 11.342 10.345 14.46 17.575.748 1.122.25 1.745-1.246 2.12z"></path>
    <path d="M201.297 95.643c-11.342-.25-21.688-3.5-30.413-10.97-7.354-6.357-11.966-14.46-13.46-24.056-2.244-14.085 1.62-26.55 10.096-37.642 9.1-11.966 20.067-18.198 34.9-20.815 12.714-2.244 24.68-.997 35.523 6.357 9.847 6.73 15.954 15.83 17.575 27.795 2.12 16.827-2.742 30.537-14.334 42.254-8.226 8.35-18.322 13.586-29.914 15.954-3.365.623-6.73.748-9.97 1.122zm29.665-50.355c-.125-1.62-.125-2.867-.374-4.113-2.244-12.34-13.586-19.32-25.427-16.577-11.592 2.617-19.07 9.97-21.812 21.688-2.244 9.722 2.493 19.57 11.467 23.557 6.855 2.99 13.71 2.617 20.317-.748 9.847-5.1 15.206-13.087 15.83-23.807z"></path>
  </symbol>
  <symbol xmlns="http://www.w3.org/2000/svg" xmlns:xlink="http://www.w3.org/1999/xlink" aria-hidden="true" role="img" preserveAspectRatio="xMidYMid meet" viewBox="0 0 256 256" id="javascript">
    <path fill="#F7DF1E" d="M0 0h256v256H0V0Z"></path>
    <path d="m67.312 213.932l19.59-11.856c3.78 6.701 7.218 12.371 15.465 12.371c7.905 0 12.89-3.092 12.89-15.12v-81.798h24.057v82.138c0 24.917-14.606 36.259-35.916 36.259c-19.245 0-30.416-9.967-36.087-21.996m85.07-2.576l19.588-11.341c5.157 8.421 11.859 14.607 23.715 14.607c9.969 0 16.325-4.984 16.325-11.858c0-8.248-6.53-11.17-17.528-15.98l-6.013-2.58c-17.357-7.387-28.87-16.667-28.87-36.257c0-18.044 13.747-31.792 35.228-31.792c15.294 0 26.292 5.328 34.196 19.247l-18.732 12.03c-4.125-7.389-8.591-10.31-15.465-10.31c-7.046 0-11.514 4.468-11.514 10.31c0 7.217 4.468 10.14 14.778 14.608l6.014 2.577c20.45 8.765 31.963 17.7 31.963 37.804c0 21.654-17.012 33.51-39.867 33.51c-22.339 0-36.774-10.654-43.819-24.574"></path>
  </symbol>
  <symbol xmlns="http://www.w3.org/2000/svg" viewBox="0 0 32 32" id="reactjs-icon">
    <g transform="matrix(.05696 0 0 .05696 .647744 2.43826)" fill="none" fill-rule="evenodd">
      <circle r="50.167" cy="237.628" cx="269.529" fill="#00d8ff"></circle>
      <g stroke="#00d8ff" stroke-width="24">
        <path d="M269.53 135.628c67.356 0 129.928 9.665 177.107 25.907 56.844 19.57 91.794 49.233 91.794 76.093 0 27.99-37.04 59.503-98.083 79.728-46.15 15.29-106.88 23.272-170.818 23.272-65.554 0-127.63-7.492-174.3-23.44-59.046-20.182-94.61-52.103-94.61-79.56 0-26.642 33.37-56.076 89.415-75.616 47.355-16.51 111.472-26.384 179.486-26.384z"></path>
        <path d="M180.736 186.922c33.65-58.348 73.28-107.724 110.92-140.48C337.006 6.976 380.163-8.48 403.43 4.937c24.248 13.983 33.042 61.814 20.067 124.796-9.8 47.618-33.234 104.212-65.176 159.6-32.75 56.788-70.25 106.82-107.377 139.272-46.98 41.068-92.4 55.93-116.185 42.213-23.08-13.3-31.906-56.92-20.834-115.233 9.355-49.27 32.832-109.745 66.8-168.664z"></path>
        <path d="M180.82 289.482C147.075 231.2 124.1 172.195 114.51 123.227c-11.544-59-3.382-104.11 19.864-117.566 24.224-14.024 70.055 2.244 118.14 44.94 36.356 32.28 73.688 80.837 105.723 136.173 32.844 56.733 57.46 114.21 67.036 162.582 12.117 61.213 2.31 107.984-21.453 121.74-23.057 13.348-65.25-.784-110.24-39.5-38.013-32.71-78.682-83.253-112.76-142.115z"></path>
      </g>
    </g>
  </symbol>
  <symbol xmlns="http://www.w3.org/2000/svg" viewBox="0 0 64 64" id="sass-lang-icon">
    <path d="M55.094 35.56c-2.238.013-4.175.55-5.8 1.35-.6-1.188-1.2-2.225-1.3-3-.113-.9-.25-1.45-.113-2.525s.763-2.6.763-2.725c-.012-.113-.138-.663-1.425-.675s-2.4.25-2.525.588a14.36 14.36 0 0 0-.538 1.913c-.225 1.175-2.575 5.338-3.913 7.526-.438-.85-.813-1.6-.888-2.2-.113-.9-.25-1.45-.113-2.525s.763-2.6.763-2.725c-.012-.113-.138-.663-1.425-.675s-2.4.25-2.525.588-.263 1.138-.538 1.913c-.263.775-3.388 7.726-4.2 9.538-.413.925-.775 1.663-1.038 2.163s-.012.038-.037.088l-.35.663v.012c-.175.313-.363.613-.45.613-.062 0-.188-.838.025-1.988.463-2.413 1.588-6.176 1.575-6.313 0-.062.213-.725-.725-1.063-.913-.338-1.238.225-1.313.225s-.138.2-.138.2 1.013-4.238-1.938-4.238c-1.85 0-4.4 2.013-5.663 3.85l-6.376 3.488-.138-.15C11.178 35.66 4.565 32.96 4.84 27.835c.1-1.863.75-6.776 12.7-12.726 9.788-4.875 17.627-3.538 18.99-.563 1.938 4.25-4.188 12.15-14.364 13.29-3.875.438-5.913-1.063-6.426-1.625-.538-.588-.613-.613-.813-.5-.325.175-.125.7 0 1.013.3.788 1.55 2.188 3.675 2.888 1.863.613 6.413.95 11.914-1.175 6.163-2.388 10.976-9.013 9.563-14.55-1.438-5.638-10.788-7.488-19.627-4.35C15.19 11.41 9.5 14.334 5.4 18.172.515 22.722-.26 26.698.064 28.348c1.138 5.888 9.25 9.726 12.5 12.564l-.45.25c-1.625.8-7.813 4.038-9.363 7.463-1.75 3.875.275 6.663 1.625 7.038 4.175 1.163 8.45-.925 10.763-4.363 2.3-3.438 2.025-7.9.963-9.938l-.038-.075 1.275-.75c.825-.488 1.638-.938 2.35-1.325-.4 1.088-.688 2.375-.838 4.25-.175 2.2.725 5.05 1.913 6.176.525.488 1.15.5 1.538.5 1.375 0 2-1.138 2.688-2.5.85-1.663 1.6-3.588 1.6-3.588s-.938 5.213 1.625 5.213c.938 0 1.875-1.213 2.3-1.838v.012s.025-.038.075-.125c.1-.15.15-.238.15-.238v-.025c.375-.65 1.213-2.138 2.463-4.6 1.613-3.175 3.163-7.15 3.163-7.15s.15.975.613 2.575c.275.95.875 1.988 1.338 3l-.6.825.012.013a35.62 35.62 0 0 1-.988 1.25c-1.275 1.525-2.8 3.263-3 3.763-.238.588-.188 1.025.275 1.375.338.25.938.3 1.575.25 1.15-.075 1.95-.363 2.35-.538a8.14 8.14 0 0 0 2.025-1.063c1.25-.925 2.013-2.238 1.938-3.988-.038-.963-.35-1.913-.738-2.813l.338-.5c1.975-2.888 3.5-6.063 3.5-6.063s.15.975.613 2.575c.238.813.713 1.7 1.138 2.575-1.85 1.513-3.013 3.263-3.413 4.413-.738 2.125-.163 3.088.925 3.313.488.1 1.188-.125 1.713-.35.65-.213 1.438-.575 2.163-1.113 1.25-.925 2.45-2.213 2.388-3.95-.038-.8-.25-1.588-.538-2.338 1.575-.65 3.613-1.025 6.2-.713 5.563.65 6.663 4.125 6.45 5.575s-1.375 2.25-1.763 2.5c-.388.238-.513.325-.475.5.05.263.225.25.563.2.463-.075 2.925-1.188 3.025-3.863.15-3.438-3.113-7.188-8.9-7.15zM12.19 50.025c-1.838 2.013-4.425 2.775-5.525 2.125-1.188-.688-.725-3.65 1.538-5.788 1.375-1.3 3.163-2.5 4.338-3.238l1.138-.688c.075-.05.125-.075.125-.075.088-.05.188-.113.288-.175.838 3.05.038 5.725-1.9 7.838zm13.44-9.138c-.638 1.563-1.988 5.575-2.8 5.35-.7-.188-1.125-3.225-.138-6.226.5-1.513 1.563-3.313 2.188-4.013 1.013-1.125 2.113-1.5 2.388-1.038.325.6-1.238 4.95-1.638 5.926zm11.088 5.3c-.275.138-.525.238-.638.163-.088-.05.113-.238.113-.238s1.388-1.488 1.938-2.175l1.088-1.388v.15c0 1.8-1.725 3-2.5 3.488zm8.55-1.95c-.2-.15-.175-.613.5-2.063.263-.575.863-1.538 1.9-2.45.125.375.2.738.188 1.075-.013 2.25-1.613 3.088-2.588 3.438z" fill="#cf649a"></path>
  </symbol>
  <symbol xmlns="http://www.w3.org/2000/svg" viewBox="0 0 64 64" id="tailwindcss-icon">
    
    <path d="M16 25.6c2.133-8.533 7.467-12.8 16-12.8 12.8 0 14.4 9.6 20.8 11.2 4.267 1.067 8-.533 11.2-4.8C61.867 27.733 56.533 32 48 32c-12.8 0-14.4-9.6-20.8-11.2-4.267-1.067-8 .533-11.2 4.8zM0 44.8C2.133 36.267 7.467 32 16 32c12.8 0 14.4 9.6 20.8 11.2 4.267 1.067 8-.533 11.2-4.8-2.133 8.533-7.467 12.8-16 12.8-12.8 0-14.4-9.6-20.8-11.2-4.267-1.067-8 .533-11.2 4.8z" fill="url(#A)" fill-rule="evenodd"></path>
  </symbol> 
</svg>
 