<svg width="0" height="0" class="hidden">
  <symbol xmlns="http://www.w3.org/2000/svg" viewBox="0 0 120 60" id="git-scm-ar21">
    <path d="M72.03 26.27c-1.7 0-2.968.835-2.968 2.845 0 1.5.835 2.565 2.875 2.565 1.73 0 2.905-1.02 2.905-2.628 0-1.825-1.05-2.782-2.812-2.782zm-3.4 14.19c-.403.494-.804 1.02-.804 1.625 0 1.235 1.575 1.608 3.74 1.608 1.793 0 4.235-.125 4.235-1.793 0-.99-1.175-1.052-2.66-1.145l-4.5-.308zm9.15-14.098c.555.713 1.144 1.7 1.144 3.123 0 3.43-2.7 5.44-6.584 5.44-1 0-1.875-.125-2.443-.278l-1.02 1.625 3.03.185c5.35.34 8.5.496 8.5 4.605 0 3.556-3.12 5.562-8.5 5.562-5.595 0-7.727-1.422-7.727-3.875 0-1.39.62-2.133 1.7-3.154-1.02-.43-1.36-1.204-1.36-2.038 0-.68.34-1.3.897-1.875l1.916-1.855c-1.515-.74-2.66-2.35-2.66-4.625 0-3.555 2.35-5.996 7.08-5.996 1.33 0 2.134.123 2.845.31h6.028v2.627l-2.845.216m8.282-5.615c-1.75 0-2.782-1.02-2.782-2.784s1.02-2.72 2.782-2.72c1.793 0 2.813.96 2.813 2.72s-1.02 2.784-2.812 2.784zm-4 18.578v-2.44l1.578-.216c.432-.062.495-.155.495-.62V26.96c0-.34-.093-.556-.403-.65l-1.67-.587.34-2.502h6.4v12.83c0 .495.03.556.495.62l1.575.216v2.438H82.06m21.05-1.2c-1.33.65-3.278 1.25-5.04 1.25-3.68 0-5.07-1.482-5.07-4.977v-8.1c0-.185 0-.31-.25-.31H90.6v-2.75c2.72-.3 3.803-1.67 4.143-5.04h2.937v4.39c0 .215 0 .31.248.31h4.36v3.09H97.67v7.375c0 1.825.434 2.535 2.1 2.535.866 0 1.75-.216 2.504-.494l.835 2.72" fill="#362701"></path>
    <path d="M50.67 29.25L32.138 10.72c-1.066-1.067-2.797-1.067-3.865 0l-3.847 3.848 4.88 4.88c1.135-.383 2.435-.125 3.337.777a3.25 3.25 0 0 1 .771 3.36l4.704 4.704c1.125-.392 2.45-.137 3.36.77a3.25 3.25 0 0 1-1.459 5.441 3.25 3.25 0 0 1-3.141-.842c-.955-.956-1.19-2.36-.707-3.537l-4.375-4.375v11.545c.3.154.602.357.86.615 1.27 1.27 1.27 3.328 0 4.6a3.25 3.25 0 0 1-4.599 0c-1.27-1.273-1.27-3.33 0-4.6a3.27 3.27 0 0 1 1.065-.71V25.546c-.375-.16-.75-.394-1.065-.7a3.25 3.25 0 0 1-.7-3.555l-4.812-4.813L9.83 29.163a2.74 2.74 0 0 0 0 3.866l18.533 18.53c1.066 1.067 2.797 1.067 3.865 0L50.67 33.116a2.74 2.74 0 0 0 0-3.866" fill="#f03c2e"></path>
  </symbol>
  <symbol xmlns="http://www.w3.org/2000/svg" fill="#00acd7" viewBox="0 0 256 95.643" id="golang-official">
    <path d="M19.32 28.96c-.5 0-.623-.25-.374-.623l2.617-3.365c.25-.374.872-.623 1.37-.623H67.43c.5 0 .623.374.374.748l-2.12 3.24c-.25.374-.872.748-1.246.748l-45.12-.125zM.5 40.427c-.5 0-.623-.25-.374-.623l2.617-3.365c.25-.374.872-.623 1.37-.623H60.95c.5 0 .748.374.623.748l-.997 2.99c-.125.5-.623.748-1.122.748L.5 40.427zm30.163 11.467c-.5 0-.623-.374-.374-.748l1.745-3.116c.25-.374.748-.748 1.246-.748h24.928c.5 0 .748.374.748.872l-.25 2.99c0 .5-.5.872-.872.872l-27.172-.125zm129.38-25.178L139.1 32.2c-1.87.5-1.994.623-3.615-1.246-1.87-2.12-3.24-3.5-5.858-4.736-7.852-3.864-15.456-2.742-22.56 1.87-8.476 5.484-12.838 13.586-12.714 23.682.125 9.97 6.98 18.198 16.827 19.57 8.476 1.122 15.58-1.87 21.19-8.226 1.122-1.37 2.12-2.867 3.365-4.612H111.68c-2.617 0-3.24-1.62-2.368-3.74 1.62-3.864 4.612-10.345 6.357-13.586.374-.748 1.246-1.994 3.116-1.994h45.37c-.25 3.365-.25 6.73-.748 10.096-1.37 8.974-4.736 17.2-10.22 24.43-8.974 11.84-20.69 19.195-35.523 21.19-12.215 1.62-23.557-.748-33.53-8.226C74.9 79.69 69.675 70.466 68.304 59c-1.62-13.586 2.368-25.8 10.595-36.52 8.85-11.592 20.566-18.946 34.9-21.563 11.716-2.12 22.934-.748 33.03 6.107 6.606 4.362 11.342 10.345 14.46 17.575.748 1.122.25 1.745-1.246 2.12z"></path>
    <path d="M201.297 95.643c-11.342-.25-21.688-3.5-30.413-10.97-7.354-6.357-11.966-14.46-13.46-24.056-2.244-14.085 1.62-26.55 10.096-37.642 9.1-11.966 20.067-18.198 34.9-20.815 12.714-2.244 24.68-.997 35.523 6.357 9.847 6.73 15.954 15.83 17.575 27.795 2.12 16.827-2.742 30.537-14.334 42.254-8.226 8.35-18.322 13.586-29.914 15.954-3.365.623-6.73.748-9.97 1.122zm29.665-50.355c-.125-1.62-.125-2.867-.374-4.113-2.244-12.34-13.586-19.32-25.427-16.577-11.592 2.617-19.07 9.97-21.812 21.688-2.244 9.722 2.493 19.57 11.467 23.557 6.855 2.99 13.71 2.617 20.317-.748 9.847-5.1 15.206-13.087 15.83-23.807z"></path>
  </symbol>
  <symbol xmlns="http://www.w3.org/2000/svg" xmlns:xlink="http://www.w3.org/1999/xlink" aria-hidden="true" role="img" preserveAspectRatio="xMidYMid meet" viewBox="0 0 256 256" id="javascript">
    <path fill="#F7DF1E" d="M0 0h256v256H0V0Z"></path>
    <path d="m67.312 213.932l19.59-11.856c3.78 6.701 7.218 12.371 15.465 12.371c7.905 0 12.89-3.092 12.89-15.12v-81.798h24.057v82.138c0 24.917-14.606 36.259-35.916 36.259c-19.245 0-30.416-9.967-36.087-21.996m85.07-2.576l19.588-11.341c5.157 8.421 11.859 14.607 23.715 14.607c9.969 0 16.325-4.984 16.325-11.858c0-8.248-6.53-11.17-17.528-15.98l-6.013-2.58c-17.357-7.387-28.87-16.667-28.87-36.257c0-18.044 13.747-31.792 35.228-31.792c15.294 0 26.292 5.328 34.196 19.247l-18.732 12.03c-4.125-7.389-8.591-10.31-15.465-10.31c-7.046 0-11.514 4.468-11.514 10.31c0 7.217 4.468 10.14 14.778 14.608l6.014 2.577c20.45 8.765 31.963 17.7 31.963 37.804c0 21.654-17.012 33.51-39.867 33.51c-22.339 0-36.774-10.654-43.819-24.574"></path>
  </symbol>
  <symbol xmlns="http://www.w3.org/2000/svg" viewBox="0 0 32 32" id="reactjs-icon">
    <g transform="matrix(.05696 0 0 .05696 .647744 2.43826)" fill="none" fill-rule="evenodd">
      <circle r="50.167" cy="237.628" cx="269.529" fill="#00d8ff"></circle>
      <g stroke="#00d8ff" stroke-width="24">
        <path d="M269.53 135.628c67.356 0 129.928 9.665 177.107 25.907 56.844 19.57 91.794 49.233 91.794 76.093 0 27.99-37.04 59.503-98.083 79.728-46.15 15.29-106.88 23.272-170.818 23.272-65.554 0-127.63-7.492-174.3-23.44-59.046-20.182-94.61-52.103-94.61-79.56 0-26.642 33.37-56.076 89.415-75.616 47.355-16.51 111.472-26.384 179.486-26.384z"></path>
        <path d="M180.736 186.922c33.65-58.348 73.28-107.724 110.92-140.48C337.006 6.976 380.163-8.48 403.43 4.937c24.248 13.983 33.042 61.814 20.067 124.796-9.8 47.618-33.234 104.212-65.176 159.6-32.75 56.788-70.25 106.82-107.377 139.272-46.98 41.068-92.4 55.93-116.185 42.213-23.08-13.3-31.906-56.92-20.834-115.233 9.355-49.27 32.832-109.745 66.8-168.664z"></path>
        <path d="M180.82 289.482C147.075 231.2 124.1 172.195 114.51 123.227c-11.544-59-3.382-104.11 19.864-117.566 24.224-14.024 70.055 2.244 118.14 44.94 36.356 32.28 73.688 80.837 105.723 136.173 32.844 56.733 57.46 114.21 67.036 162.582 12.117 61.213 2.31 107.984-21.453 121.74-23.057 13.348-65.25-.784-110.24-39.5-38.013-32.71-78.682-83.253-112.76-142.115z"></path>
      </g>
    </g>
  </symbol>
  <symbol xmlns="http://www.w3.org/2000/svg" viewBox="0 0 64 64" id="sass-lang-icon">
    <path d="M55.094 35.56c-2.238.013-4.175.55-5.8 1.35-.6-1.188-1.2-2.225-1.3-3-.113-.9-.25-1.45-.113-2.525s.763-2.6.763-2.725c-.012-.113-.138-.663-1.425-.675s-2.4.25-2.525.588a14.36 14.36 0 0 0-.538 1.913c-.225 1.175-2.575 5.338-3.913 7.526-.438-.85-.813-1.6-.888-2.2-.113-.9-.25-1.45-.113-2.525s.763-2.6.763-2.725c-.012-.113-.138-.663-1.425-.675s-2.4.25-2.525.588-.263 1.138-.538 1.913c-.263.775-3.388 7.726-4.2 9.538-.413.925-.775 1.663-1.038 2.163s-.012.038-.037.088l-.35.663v.012c-.175.313-.363.613-.45.613-.062 0-.188-.838.025-1.988.463-2.413 1.588-6.176 1.575-6.313 0-.062.213-.725-.725-1.063-.913-.338-1.238.225-1.313.225s-.138.2-.138.2 1.013-4.238-1.938-4.238c-1.85 0-4.4 2.013-5.663 3.85l-6.376 3.488-.138-.15C11.178 35.66 4.565 32.96 4.84 27.835c.1-1.863.75-6.776 12.7-12.726 9.788-4.875 17.627-3.538 18.99-.563 1.938 4.25-4.188 12.15-14.364 13.29-3.875.438-5.913-1.063-6.426-1.625-.538-.588-.613-.613-.813-.5-.325.175-.125.7 0 1.013.3.788 1.55 2.188 3.675 2.888 1.863.613 6.413.95 11.914-1.175 6.163-2.388 10.976-9.013 9.563-14.55-1.438-5.638-10.788-7.488-19.627-4.35C15.19 11.41 9.5 14.334 5.4 18.172.515 22.722-.26 26.698.064 28.348c1.138 5.888 9.25 9.726 12.5 12.564l-.45.25c-1.625.8-7.813 4.038-9.363 7.463-1.75 3.875.275 6.663 1.625 7.038 4.175 1.163 8.45-.925 10.763-4.363 2.3-3.438 2.025-7.9.963-9.938l-.038-.075 1.275-.75c.825-.488 1.638-.938 2.35-1.325-.4 1.088-.688 2.375-.838 4.25-.175 2.2.725 5.05 1.913 6.176.525.488 1.15.5 1.538.5 1.375 0 2-1.138 2.688-2.5.85-1.663 1.6-3.588 1.6-3.588s-.938 5.213 1.625 5.213c.938 0 1.875-1.213 2.3-1.838v.012s.025-.038.075-.125c.1-.15.15-.238.15-.238v-.025c.375-.65 1.213-2.138 2.463-4.6 1.613-3.175 3.163-7.15 3.163-7.15s.15.975.613 2.575c.275.95.875 1.988 1.338 3l-.6.825.012.013a35.62 35.62 0 0 1-.988 1.25c-1.275 1.525-2.8 3.263-3 3.763-.238.588-.188 1.025.275 1.375.338.25.938.3 1.575.25 1.15-.075 1.95-.363 2.35-.538a8.14 8.14 0 0 0 2.025-1.063c1.25-.925 2.013-2.238 1.938-3.988-.038-.963-.35-1.913-.738-2.813l.338-.5c1.975-2.888 3.5-6.063 3.5-6.063s.15.975.613 2.575c.238.813.713 1.7 1.138 2.575-1.85 1.513-3.013 3.263-3.413 4.413-.738 2.125-.163 3.088.925 3.313.488.1 1.188-.125 1.713-.35.65-.213 1.438-.575 2.163-1.113 1.25-.925 2.45-2.213 2.388-3.95-.038-.8-.25-1.588-.538-2.338 1.575-.65 3.613-1.025 6.2-.713 5.563.65 6.663 4.125 6.45 5.575s-1.375 2.25-1.763 2.5c-.388.238-.513.325-.475.5.05.263.225.25.563.2.463-.075 2.925-1.188 3.025-3.863.15-3.438-3.113-7.188-8.9-7.15zM12.19 50.025c-1.838 2.013-4.425 2.775-5.525 2.125-1.188-.688-.725-3.65 1.538-5.788 1.375-1.3 3.163-2.5 4.338-3.238l1.138-.688c.075-.05.125-.075.125-.075.088-.05.188-.113.288-.175.838 3.05.038 5.725-1.9 7.838zm13.44-9.138c-.638 1.563-1.988 5.575-2.8 5.35-.7-.188-1.125-3.225-.138-6.226.5-1.513 1.563-3.313 2.188-4.013 1.013-1.125 2.113-1.5 2.388-1.038.325.6-1.238 4.95-1.638 5.926zm11.088 5.3c-.275.138-.525.238-.638.163-.088-.05.113-.238.113-.238s1.388-1.488 1.938-2.175l1.088-1.388v.15c0 1.8-1.725 3-2.5 3.488zm8.55-1.95c-.2-.15-.175-.613.5-2.063.263-.575.863-1.538 1.9-2.45.125.375.2.738.188 1.075-.013 2.25-1.613 3.088-2.588 3.438z" fill="#cf649a"></path>
  </symbol>
  <symbol xmlns="http://www.w3.org/2000/svg" viewBox="0 0 120 60" id="tailwindcss-ar21">
    <defs>
      <linearGradient x1="7.294" y1=".881" y2="59.119" id="A" x2="42.237" gradientUnits="userSpaceOnUse">
        <stop stop-color="#2383ae" offset="0%"></stop>
        <stop stop-color="#6dd7b9" offset="100%"></stop>
      </linearGradient>
    </defs>
    <g fill-rule="evenodd">
      <path d="M16.03 26.506c1.164-4.66 4.077-6.99 8.736-6.99 6.99 0 7.862 5.24 11.356 6.115 2.33.583 4.368-.29 6.115-2.62C41.073 27.67 38.16 30 33.502 30c-6.99 0-7.862-5.24-11.356-6.115-2.33-.583-4.368.29-6.115 2.62zM7.294 36.99C8.46 32.33 11.37 30 16.03 30c6.99 0 7.862 5.24 11.356 6.115 2.33.583 4.368-.29 6.115-2.62-1.164 4.66-4.077 6.99-8.736 6.99-6.99 0-7.862-5.24-11.356-6.115-2.33-.583-4.368.29-6.115 2.62z" fill="url(#A)" transform="translate(1.333)"></path>
      <path d="M49.93 27.578h-2.287v-1.37h6.17v1.37h-2.286v6.214H49.93zm6.87 5.513a2.91 2.91 0 0 1-.74.605c-.272.156-.625.234-1.058.234a2.56 2.56 0 0 1-.707-.096c-.224-.064-.42-.163-.586-.297s-.3-.305-.398-.515-.15-.458-.15-.75c0-.382.085-.694.256-.935a1.73 1.73 0 0 1 .67-.563c.276-.135.586-.23.93-.287a8.44 8.44 0 0 1 1.049-.106l.712-.032v-.276c0-.34-.093-.574-.282-.7s-.41-.19-.664-.19c-.59 0-.926.223-1.01.67l-1.36-.127c.098-.58.354-1 .765-1.26s.965-.388 1.66-.388c.425 0 .787.05 1.085.154s.538.25.718.44a1.71 1.71 0 0 1 .394.696c.082.272.122.58.122.92v3.505H56.8v-.7zm-.032-1.774l-.66.032c-.312.013-.564.046-.755.096s-.34.112-.44.186-.173.16-.207.26-.053.21-.053.33c0 .184.064.33.19.435s.305.16.53.16c.384 0 .696-.088.936-.266.135-.1.246-.226.33-.377s.127-.342.127-.568v-.287zm2.646-3.07h1.49v5.544h-1.49zm-.02-2.04h1.53v1.338h-1.53zm2.784 0h1.49v7.584h-1.49zm2.157 2.04h1.616l.777 3.675L67.79 28.3h1.298l1 3.633.777-3.675h1.553l-1.617 5.544h-1.447l-.99-3.654-1 3.654H65.95l-1.616-5.544zm8.76 0h1.49v5.544h-1.49zm-.02-2.04h1.53v1.338h-1.53zm2.774 2.04h1.447v.765c.22-.325.48-.563.78-.712s.615-.223.94-.223c.632 0 1.1.165 1.405.494s.458.848.458 1.556v3.664H79.39V30.33c0-.4-.074-.655-.224-.797s-.347-.212-.595-.212c-.19 0-.356.03-.495.085s-.268.138-.388.244c-.1.1-.183.218-.25.356a1.03 1.03 0 0 0-.1.451v3.335h-1.5v-5.544zm10.08 4.812a2 2 0 0 1-1.723.903c-.78 0-1.36-.262-1.745-.786s-.574-1.25-.574-2.177a3.99 3.99 0 0 1 .166-1.184c.11-.358.267-.666.473-.924a2.12 2.12 0 0 1 .755-.6c.3-.14.635-.212 1.01-.212.276 0 .55.05.823.15s.53.3.772.574v-2.592h1.49v7.584H85.93v-.733zm-.032-2.103c0-.354-.03-.637-.1-.85s-.158-.385-.292-.52c-.128-.127-.268-.2-.42-.25a1.78 1.78 0 0 0-.451-.058 1.14 1.14 0 0 0-.463.096c-.146.064-.272.163-.383.297s-.197.312-.26.53-.096.48-.096.786c0 .332.03.61.1.834s.143.404.25.542.23.237.372.297.295.1.458.1c.354 0 .645-.103.872-.308a1.3 1.3 0 0 0 .313-.515c.066-.202.1-.462.1-.78v-.19zm11.642.212c-.036.404-.13.777-.282 1.12a2.76 2.76 0 0 1-.627.892 2.79 2.79 0 0 1-.979.589c-.386.14-.834.212-1.345.212-.574 0-1.08-.096-1.516-.287a2.98 2.98 0 0 1-1.095-.807c-.295-.347-.516-.767-.665-1.26s-.223-1.036-.223-1.63c0-.616.08-1.168.244-1.657s.398-.906.702-1.253.674-.613 1.106-.797.923-.276 1.47-.276c.482 0 .903.06 1.26.18s.66.294.905.52.44.5.59.818a4.32 4.32 0 0 1 .329 1.073l-1.575.202c-.078-.446-.23-.797-.45-1.052s-.578-.382-1.06-.382c-.61 0-1.073.228-1.387.685s-.475 1.102-.475 1.938c0 .843.17 1.5.506 1.944a1.6 1.6 0 0 0 1.356.68c.49 0 .85-.126 1.08-.377s.373-.61.43-1.078zm2.317.15c.035.467.186.807.45 1.02s.657.32 1.175.32c.248 0 .458-.027.628-.08s.308-.124.415-.212a.75.75 0 0 0 .228-.313 1.08 1.08 0 0 0 .069-.393c0-.2-.073-.385-.222-.558s-.422-.3-.82-.377l-.99-.18c-.4-.07-.734-.163-1.032-.276s-.548-.26-.75-.44-.356-.402-.462-.664-.16-.574-.16-.935a2.03 2.03 0 0 1 .218-.956 1.96 1.96 0 0 1 .606-.69c.26-.184.57-.324.93-.42s.76-.143 1.192-.143c.553 0 1.014.064 1.383.19s.667.295.894.505.395.45.505.728.183.563.22.86l-1.5.19c-.078-.418-.228-.72-.45-.903s-.562-.276-1.016-.276c-.27 0-.49.023-.665.07s-.314.106-.42.18a.62.62 0 0 0-.224.26c-.042.1-.064.202-.064.308 0 .283.08.496.24.637s.43.252.813.33l1.042.202c.823.163 1.426.427 1.81.79s.574.9.574 1.577c0 .332-.062.64-.186.92a2.06 2.06 0 0 1-.554.733 2.6 2.6 0 0 1-.919.489c-.368.117-.8.175-1.298.175-1.036 0-1.828-.22-2.377-.664s-.846-1.1-.9-2.002h1.606zm6.9 0c.035.467.186.807.45 1.02s.66.32 1.175.32c.25 0 .458-.027.63-.08s.308-.124.415-.212a.75.75 0 0 0 .228-.313 1.08 1.08 0 0 0 .069-.393.84.84 0 0 0-.223-.558c-.15-.173-.422-.3-.82-.377l-.99-.18c-.4-.07-.734-.163-1.032-.276s-.548-.26-.75-.44-.356-.402-.463-.664-.16-.574-.16-.935a2.03 2.03 0 0 1 .218-.956c.146-.276.348-.507.606-.7s.57-.324.93-.42.76-.143 1.192-.143c.553 0 1.014.064 1.383.19s.666.295.894.505.396.45.505.728.183.563.22.86l-1.5.19c-.078-.418-.228-.72-.45-.903s-.562-.276-1.016-.276c-.27 0-.49.023-.665.07s-.314.106-.42.18a.62.62 0 0 0-.224.26c-.043.1-.064.202-.064.308 0 .283.08.496.24.637s.43.252.814.33L109 29.3c.823.163 1.426.427 1.81.79s.574.9.574 1.577a2.24 2.24 0 0 1-.186.919 2.05 2.05 0 0 1-.554.733c-.244.21-.55.372-.92.49s-.8.175-1.297.175c-1.036 0-1.828-.22-2.378-.664s-.846-1.1-.888-2.002z" fill="#24292e"></path>
    </g>
  </symbol>
  <symbol xmlnsDc="http://purl.org/dc/elements/1.1/" xmlnsCc="http://creativecommons.org/ns#" xmlnsRdf="http://www.w3.org/1999/02/22-rdf-syntax-ns#" xmlnsSvg="http://www.w3.org/2000/svg" xmlns="http://www.w3.org/2000/svg" xmlnsSodipodi="http://sodipodi.sourceforge.net/DTD/sodipodi-0.dtd" xmlnsInkscape="http://www.inkscape.org/namespaces/inkscape" id="w3_css-official" version="1.1" inkscapeVersion="0.92.4 (5da689c313, 2019-01-14)" sodipodiDocname="w3_css-official.svg" viewBox="0 0 240.00001 240">
    <defs id="defs3478"></defs>
    <sodipodi:namedview id="base" pagecolor="#ffffff" bordercolor="#666666" borderopacity="1.0" inkscapePageopacity="0.0" inkscapePageshadow="2" inkscapeZoom="0.35" inkscapeCx="-678.633" inkscapeCy="244.57143" inkscapeDocumentUnits="px" inkscapeCurrentLayer="layer1" showgrid="false" fitMarginTop="0" fitMarginLeft="0" fitMarginRight="0" fitMarginBottom="0" inkscapeWindowWidth="1850" inkscapeWindowHeight="1016" inkscapeWindowX="70" inkscapeWindowY="27" inkscapeWindowMaximized="1" units="px"></sodipodi:namedview>
    <metadata id="metadata3481">
      <rdf:RDF>
        <cc:Work rdfAbout="">
          <dc:format>image/svg+xml</dc:format>
          <dc:type rdfResource="http://purl.org/dc/dcmitype/StillImage"></dc:type>
          <dc:title></dc:title>
        </cc:Work>
      </rdf:RDF>
    </metadata>
    <g inkscapeLabel="Calque 1" inkscapeGroupmode="layer" id="layer1" transform="translate(-193.633,-548.36217)">
      <g id="g3013" transform="matrix(0.46875001,0,0,0.46875001,194.74253,548.36217)">
        <polygon id="polygon2989" points="107.644,470.877 74.633,100.62 437.367,100.62 404.321,470.819 255.778,512 "></polygon>
        <polygon id="polygon2991" points="376.03,447.246 404.27,130.894 256,130.894 256,480.523 "></polygon>
        <polygon id="polygon2993" points="150.31,268.217 154.38,313.627 256,313.627 256,268.217 "></polygon>
        <polygon id="polygon2995" points="146.26,221.716 256,221.716 256,176.305 255.843,176.305 142.132,176.305 "></polygon>
        <polygon id="polygon2997" points="255.791,433.457 256,433.399 256,386.153 255.801,386.206 205.227,372.55 201.994,336.333 177.419,336.333 156.409,336.333 162.771,407.634 "></polygon>
        <path id="path2999" d="m 160,0 h 55 v 23 h -32 v 23 h 32 v 23 h -55 z" inkscapeConnectorCurvature="0"></path>
        <path id="path3001" d="m 226,0 h 55 v 20 h -32 v 4 h 32 V 70 H 226 V 49 h 32 v -4 h -32 z" inkscapeConnectorCurvature="0"></path>
        <path id="path3003" d="m 292,0 h 55 v 20 h -32 v 4 h 32 V 70 H 292 V 49 h 32 v -4 h -32 z" inkscapeConnectorCurvature="0"></path>
        <polygon id="polygon3005" points="369.597,176.305 255.843,176.305 255.843,221.716 319.831,221.716 315.699,268.217 255.843,268.217 255.843,313.627 311.761,313.627 306.49,372.521 255.843,386.191 255.843,433.435 348.937,407.634 349.62,399.962 360.291,280.411 361.399,268.217 "></polygon>
      </g>
    </g>
  </symbol>
  <symbol xmlns="http://www.w3.org/2000/svg" viewBox="0 0 120 60" id="w3_html5-ar21">
    <path d="M6.3 21.475H12v5.63h5.213v-5.63h5.7v17.05h-5.7v-5.7H12v5.7H6.3v-17.05zm24.107 5.655H25.38v-5.654h15.736v5.654h-5.02v11.397h-5.7V27.13zm13.207-5.655h5.943l3.656 6 3.652-6H62.8v17.05h-5.676v-8.452l-3.92 6.063h-.098L49.2 30.074v8.452h-5.576zm22.03 0h5.7V32.9h8.015v5.636H65.645z"></path>
    <path d="M82.07 12.06h31.637l-2.882 32.288L97.87 47.94l-12.92-3.587z" fill="#e44d26"></path>
    <path d="M108.36 42.293l2.463-27.592H97.9v30.494z" fill="#f16529"></path>
    <path d="M92.65 26.678l-.362-4.056H97.9v-3.96h-9.93l1.068 11.977H97.9v-3.96zm-3.446 5.942l.555 6.22 8.113 2.252.018-.005v-4.12l-.017.005-4.4-1.2-.282-3.16h-2.143z" fill="#ebebeb"></path>
    <path d="M106.986 27.74l.097-1.064h-9.206v3.96h4.877l-.46 5.137-4.417 1.192v4.12l8.12-2.25.06-.67zm-9.1-5.118h9.567l.355-3.97h-9.922v3.95z" fill="#fff"></path>
  </symbol>
</svg>

<svg class="icon">
  <use xlink:href="#git-scm-ar21"></use>
</svg><svg class="icon">
  <use xlink:href="#golang-official"></use>
</svg><svg class="icon">
  <use xlink:href="#javascript"></use>
</svg><svg class="icon">
  <use xlink:href="#reactjs-icon"></use>
</svg><svg class="icon">
  <use xlink:href="#sass-lang-icon"></use>
</svg><svg class="icon">
  <use xlink:href="#tailwindcss-ar21"></use>
</svg><svg class="icon">
  <use xlink:href="#w3_css-official"></use>
</svg><svg class="icon">
  <use xlink:href="#w3_html5-ar21"></use>
</svg>